<svg width="800" height="500" version="1.1" xmlns="http://www.w3.org/2000/svg" desc="Created with imagetracer.js version 1.2.6" ><path fill="rgb(0,0,0)" stroke="rgb(0,0,0)" stroke-width="1" opacity="0" d="M 0 0 L 800 0 L 800 500 L 0 500 L 0 0 Z M 143 176 L 143 178 L 144 179 L 142 180 L 142 191 L 140 191 L 140 179 L 139 191 L 131 191 L 130 192 L 127 191 L 126 195 L 126 221 L 124 221 L 124 195 L 123 195 L 123 221 L 75 221 L 73 223 L 73 235 L 63 235 L 61 236 L 60 235 L 57 238 L 55 239 L 55 276 L 61 279 L 118 279 L 120 279 L 126 282 L 126 320 L 127 322 L 130 323 L 196 323 L 199 321 Q 198 314 201 315 L 203 315 L 205 314 L 225 314 L 224 313 L 224 279 L 265 279 L 267 279 Q 269 280 268 276 L 270 276 L 271 270 L 271 276 L 273 276 L 273 270 L 294 270 L 295 269 L 295 223 L 294 221 L 207 221 L 205 222 L 203 222 L 202 193 L 201 222 L 199 222 L 199 194 L 196 191 L 152 191 L 152 183 L 153 182 L 216 182 L 216 210 L 215 211 Q 218 213 225 212 L 224 210 L 224 179 L 225 178 Q 226 175 224 176 L 222 176 L 147 176 L 146 177 L 143 176 Z M 124 192 Q 123 195 126 194 Q 127 191 124 192 Z M 612 226 L 611 229 Q 607 228 609 234 Q 611 238 613 235 L 615 236 Q 623 238 626 234 Q 625 231 628 232 L 628 230 Q 625 231 626 229 L 624 227 L 622 227 L 620 226 L 615 227 L 612 226 Z M 300 227 L 300 269 L 302 269 L 302 228 L 300 227 Z M 303 227 L 303 269 L 351 269 L 351 260 L 325 260 L 325 254 L 326 253 L 348 253 L 348 244 L 325 244 L 325 237 L 326 236 L 351 236 L 351 228 L 351 227 L 303 227 Z M 386 227 L 386 269 L 404 269 L 404 253 L 428 253 L 428 269 L 446 269 L 446 227 L 428 227 L 428 243 L 427 243 L 425 243 L 423 244 L 404 244 L 404 227 L 386 227 Z M 447 227 L 448 251 L 449 247 L 449 245 L 449 228 L 447 227 Z M 636 227 L 636 238 L 630 238 L 630 245 L 636 245 L 636 246 L 636 266 L 639 268 Q 638 270 641 269 L 643 269 L 662 269 L 662 262 L 657 261 L 657 246 L 662 245 L 662 238 L 657 238 L 657 229 L 655 228 L 655 238 L 654 228 L 652 227 L 636 227 Z M 715 227 L 715 229 L 715 264 L 714 266 L 717 267 Q 719 266 718 269 L 720 268 L 722 269 L 738 269 L 738 263 L 736 261 L 734 261 L 732 260 L 730 260 L 730 227 L 715 227 Z M 468 237 L 465 239 L 463 238 L 462 240 L 460 239 L 454 244 Q 455 246 452 245 L 452 247 L 451 247 L 451 249 Q 452 252 449 251 L 449 256 L 451 256 L 450 259 L 454 264 L 457 265 L 460 268 L 461 267 Q 463 266 462 269 L 464 268 L 467 269 L 469 269 L 471 270 L 484 270 L 485 269 L 487 270 L 489 269 L 491 269 Q 493 270 492 268 L 499 263 L 502 261 L 501 260 Q 500 257 503 258 L 503 250 L 501 249 L 501 248 L 502 246 Q 499 247 500 244 L 494 240 Q 491 241 492 238 L 490 239 L 486 238 L 484 238 L 482 237 L 471 237 L 470 238 L 468 237 Z M 519 237 L 515 239 L 513 239 Q 514 241 510 240 L 510 242 L 506 243 L 507 247 L 506 249 Q 505 251 508 250 L 508 252 L 514 254 Q 515 257 517 255 L 521 256 L 523 256 L 529 258 Q 530 256 532 259 L 534 258 L 535 261 L 533 262 L 531 262 Q 525 264 524 261 Q 521 262 522 260 L 521 258 L 507 258 L 505 258 Q 503 263 507 262 L 506 264 L 514 267 Q 515 270 517 268 L 520 270 L 522 269 L 523 270 L 537 270 L 539 270 L 542 269 L 544 269 Q 546 270 545 268 L 550 264 L 551 264 L 551 260 L 553 260 Q 554 257 551 258 L 551 255 L 548 253 Q 545 254 546 252 L 545 252 L 542 251 L 540 251 L 534 250 L 534 248 Q 531 247 532 250 L 528 248 L 526 248 Q 520 250 522 245 Q 530 244 534 246 L 536 249 L 550 249 L 551 248 L 549 247 L 550 245 L 546 243 L 545 241 Q 546 238 544 239 L 540 239 L 536 237 L 534 237 L 522 237 L 521 238 L 519 237 Z M 575 237 L 574 240 L 572 240 L 572 238 L 556 238 L 556 280 L 572 280 L 572 269 L 571 268 L 573 268 Q 576 267 575 270 L 578 269 L 579 270 L 590 270 L 592 270 L 601 266 L 603 263 Q 605 264 604 261 L 606 261 L 605 259 Q 604 256 607 257 L 607 251 L 605 250 L 606 248 L 606 246 L 604 246 Q 605 243 603 244 L 601 241 L 592 237 L 590 237 L 579 237 L 578 238 L 575 237 Z M 680 237 L 676 239 L 674 238 L 673 240 L 667 243 L 667 245 L 665 245 L 666 249 L 681 249 L 682 246 L 685 245 L 689 246 L 691 246 Q 693 245 692 248 L 694 249 L 688 249 L 686 249 L 680 250 L 678 250 L 673 252 L 671 251 L 670 253 L 663 256 L 664 260 L 663 265 L 673 270 L 675 270 L 687 270 L 688 269 L 690 270 L 690 268 L 695 267 L 694 269 L 709 269 L 709 249 L 710 248 Q 711 245 708 246 L 708 243 L 705 242 Q 706 239 703 240 Q 701 236 700 239 L 696 237 L 694 237 L 683 237 L 682 238 L 680 237 Z M 52 238 L 52 276 L 54 276 L 54 239 L 52 238 Z M 611 238 L 611 269 L 626 269 L 626 238 L 611 238 Z M 663 238 L 664 245 Q 668 243 665 242 Q 666 237 663 238 Z M 504 243 L 502 245 L 505 245 Q 506 242 504 243 Z M 353 248 L 353 256 L 354 256 L 383 256 L 383 249 L 383 248 L 353 248 Z M 448 256 L 447 269 L 449 269 L 449 263 L 450 262 L 448 256 Z M 741 262 L 740 269 L 741 269 L 741 262 Z M 664 266 Q 661 270 665 269 L 664 266 Z M 124 282 L 123 320 L 124 320 L 124 282 Z M 456 284 L 454 286 Q 455 289 452 288 L 452 285 L 451 288 Q 445 287 442 290 L 443 294 L 442 297 L 447 299 L 460 299 L 460 285 Q 460 284 456 284 Z M 464 284 L 462 286 L 463 287 L 468 287 Q 470 282 464 284 Z M 507 284 L 507 286 L 506 298 L 514 299 L 513 297 L 513 285 L 507 284 Z M 524 284 L 524 299 L 528 299 L 528 294 Q 531 294 530 291 L 533 290 L 534 291 L 534 299 L 540 299 L 540 290 L 537 288 L 530 288 L 528 289 L 529 285 L 524 284 Z M 600 284 L 598 286 L 599 287 L 604 287 Q 606 282 600 284 Z M 607 284 L 607 288 L 598 288 L 598 292 Q 595 293 596 290 L 593 288 L 578 288 L 578 303 L 585 303 L 585 299 L 594 299 L 595 298 Q 597 299 596 296 Q 599 295 598 299 L 604 299 L 604 290 L 607 290 L 607 298 L 610 299 Q 616 301 618 298 L 619 299 L 628 299 L 630 299 Q 635 301 634 297 Q 637 296 637 299 L 644 299 L 644 297 L 641 297 L 641 284 L 634 285 L 634 293 L 633 285 Q 630 284 631 289 L 630 288 Q 623 286 622 289 L 618 288 L 619 291 L 617 292 L 620 293 L 619 293 L 617 297 L 614 297 L 614 291 L 617 290 Q 619 284 615 285 L 615 288 L 614 285 L 607 284 Z M 514 285 L 514 297 L 516 297 L 516 286 L 514 285 Z M 396 288 L 396 299 L 400 299 L 400 294 Q 403 294 402 291 L 406 291 L 406 299 L 412 299 L 412 292 L 414 290 L 415 292 L 415 299 L 422 299 L 422 290 Q 419 287 411 288 L 409 288 Q 402 286 401 289 L 396 288 Z M 426 288 Q 426 292 423 292 L 423 297 L 427 299 L 438 299 L 440 297 Q 442 298 441 295 L 432 297 L 430 295 L 431 295 Q 430 297 434 296 L 433 295 L 442 294 L 441 293 L 441 290 Q 438 291 439 289 L 438 289 L 436 288 Q 429 286 428 289 L 426 288 Z M 462 288 L 462 299 L 468 299 L 468 288 L 462 288 Z M 471 288 L 471 290 L 470 297 L 474 299 L 484 299 L 486 297 Q 490 296 489 299 L 505 299 L 505 290 L 502 288 L 493 288 L 491 290 Q 488 289 489 292 L 492 293 L 489 295 L 482 295 L 481 297 L 476 297 Q 477 294 474 295 L 476 291 L 479 290 L 482 292 Q 488 293 487 291 L 484 288 L 475 288 L 474 289 L 471 288 Z M 543 288 L 542 297 L 546 299 L 556 299 L 558 297 Q 560 298 559 295 L 561 295 L 561 294 L 562 294 L 561 297 L 565 299 Q 573 300 577 298 L 577 294 L 576 294 L 576 293 Q 578 294 577 290 L 574 288 L 565 288 L 563 290 Q 560 289 561 292 Q 558 293 559 291 L 556 288 L 547 288 L 546 289 L 543 288 Z M 615 292 Q 614 295 617 294 Q 618 291 615 292 Z M 532 293 L 531 299 L 532 299 L 532 293 Z M 575 299 Q 573 304 577 303 Q 579 298 575 299 Z M 202 315 L 201 321 L 202 321 L 202 315 Z M 124 320 Q 123 323 126 322 Q 127 319 124 320 Z " /><path fill="rgb(0,0,0)" stroke="rgb(0,0,0)" stroke-width="1" opacity="0" d="M 84.5 226 L 86.5 227 L 87.5 226 L 123 226 L 123.5 232 L 124 226 L 126 226 L 126 232 L 119.5 235 L 117.5 235 L 82.5 235 L 82 234.5 L 82 227 L 84.5 226 Z " /><path fill="rgb(0,0,0)" stroke="rgb(0,0,0)" stroke-width="1" opacity="0" d="M 220.5 226 L 222.5 227 L 223.5 226 L 280.5 226 L 282.5 226 L 286 227 L 286 264 L 273 264 L 273 238.5 L 271 238 L 270.5 264 L 270 238 L 264.5 235 L 207.5 235 L 206.5 234 L 204.5 235 L 201 232.5 Q 202.1 229.2 199.5 230 L 199.5 229 L 201.5 228 L 203.5 229 L 206.5 227 L 208.5 228 L 209.5 227 L 219.5 227 L 220.5 226 Z M 202 230 Q 201 234 204 233 Q 205 229 202 230 Z " /><path fill="rgb(0,0,0)" stroke="rgb(0,0,0)" stroke-width="1" opacity="0" d="M 322 236 L 324 236.5 L 324 244 L 322 243.5 L 322 236 Z " /><path fill="rgb(0,0,0)" stroke="rgb(0,0,0)" stroke-width="1" opacity="0" d="M 654.5 245 L 655 260.5 L 654 260.5 L 654.5 245 Z " /><path fill="rgb(0,0,0)" stroke="rgb(0,0,0)" stroke-width="1" opacity="0" d="M 471.5 246 Q 477 244.5 478.5 247 L 480.5 246 L 484 248 Q 483.3 251.1 486 250.5 L 486 257 L 484 257 Q 485.1 259.7 482.5 259 L 479.5 261 L 477.5 261 Q 470.3 262.3 468 258.5 L 468 256 L 466 255.5 L 466 251 Q 469 252.3 468 248.5 L 471.5 246 Z " /><path fill="rgb(0,0,0)" stroke="rgb(0,0,0)" stroke-width="1" opacity="0" d="M 575.5 246 L 577.5 247 Q 579 244.5 584.5 246 L 588 248 Q 587.3 251.1 590 250.5 L 590 257 L 588 257 Q 589.1 259.7 586.5 259 L 583.5 261 L 582 260.5 L 582 262 L 578 262 L 577.5 260 L 575.5 261 L 572 259 Q 572.8 255.9 570 256.5 L 570 250 L 572 250 Q 570.9 247.3 573.5 248 L 575.5 246 Z " /><path fill="rgb(0,0,0)" stroke="rgb(0,0,0)" stroke-width="1" opacity="0" d="M 322 253 L 324 253.5 L 324 260 L 322 259.5 L 322 253 Z " /><path fill="rgb(0,0,0)" stroke="rgb(0,0,0)" stroke-width="1" opacity="0" d="M 689.5 256 L 691.5 256 Q 695.3 255 694 258 Q 690.7 256.9 692 261 L 689.5 261 L 687.5 262 L 685.5 262 L 682.5 261 L 680.5 261 Q 677.9 261.7 679 259 L 683.5 257 L 685.5 257 L 689.5 256 Z " /><path fill="rgb(0,0,0)" stroke="rgb(0,0,0)" stroke-width="1" opacity="0" d="M 204.5 279 L 206.5 280 L 207.5 279 L 216 279 L 216 309 L 202 309 L 201.5 284 L 201 309 L 199 308.5 L 199 284 Q 202 285.3 201 281.5 L 204.5 279 Z M 202 281 Q 201 285 204 284 Q 205 280 202 281 Z " /><path fill="rgb(0,0,0)" stroke="rgb(0,0,0)" stroke-width="1" opacity="0" d="M 431.5 290 L 434 291.5 L 432.5 291 L 430.5 292 L 431.5 290 Z " /><path fill="rgb(0,0,0)" stroke="rgb(0,0,0)" stroke-width="1" opacity="0" d="M 450.5 290 L 456 292 Q 457.5 295.7 454.5 295 L 449 297 L 447 293 Q 449.7 294.1 449 291.5 L 450.5 290 Z M 452 291 L 450 293 L 452 293 L 452 291 Z " /><path fill="rgb(0,0,0)" stroke="rgb(0,0,0)" stroke-width="1" opacity="0" d="M 495 290 L 498 291.5 L 494.5 293 L 495 291.5 L 495 290 Z " /><path fill="rgb(0,0,0)" stroke="rgb(0,0,0)" stroke-width="1" opacity="0" d="M 550.5 290 L 555 292 L 555 296 L 553.5 296 L 550.5 297 L 546 295 L 546 293 L 548 293 Q 546.9 290.3 549.5 291 L 550.5 290 Z " /><path fill="rgb(0,0,0)" stroke="rgb(0,0,0)" stroke-width="1" opacity="0" d="M 567 290 Q 572 289.2 574 292.5 L 572.5 293 L 569.5 291 L 567 292 L 567 290 Z " /><path fill="rgb(0,0,0)" stroke="rgb(0,0,0)" stroke-width="1" opacity="0" d="M 625.5 290 L 628 291.5 L 622.5 293 L 623.5 291 L 625.5 290 Z " /><path fill="rgb(0,0,0)" stroke="rgb(0,0,0)" stroke-width="1" opacity="0" d="M 585 291 L 592 291.5 L 589.5 297 Q 585.8 297.8 585 295.5 L 585 291 Z M 586 293 L 586 295 L 588 294 L 586 293 Z " /><path fill="rgb(0,0,0)" stroke="rgb(0,0,0)" stroke-width="1" opacity="0" d="M 498.5 294 L 496.5 297 Q 491.7 298.3 493 295 L 498.5 294 Z " /><path fill="rgb(0,0,0)" stroke="rgb(0,0,0)" stroke-width="1" opacity="0" d="M 566.5 294 L 567 296 L 572 295 Q 573.4 298.7 567.5 297 L 566.5 294 Z " /><path fill="rgb(0,0,0)" stroke="rgb(0,0,0)" stroke-width="1" opacity="0" d="M 626 294 Q 629 293 628 296 L 623 297 Q 621.9 294.3 624.5 295 L 626 295.5 L 626 294 Z " /><path fill="rgb(55,73,85)" stroke="rgb(55,73,85)" stroke-width="1" opacity="0.9411764705882353" d="M 145.5 177 L 222.5 177 L 224 178.5 L 224 209.5 L 225 210.5 L 217.5 212 L 215 210.5 L 216 209.5 L 216 182 L 152 182 L 152 224.5 L 150.5 226 L 81 226.5 L 82 227.5 L 82 264 L 147.5 264 L 152 266.5 L 152 309 L 216 309 L 216 266.5 L 217.5 265 L 220.5 264 L 267.5 264 L 268.5 265 L 286 265 L 286 227.5 L 287 226.5 L 210.5 226 L 193.5 229 L 184.5 232 Q 167.8 238.3 158 251.5 L 156 256 L 150.5 257 L 147 254.5 Q 151.3 245.8 158.5 240 L 173.5 230 L 195.5 223 L 211.5 222 L 212.5 221 L 291.5 221 L 295 222 L 295 267.5 L 293.5 268 L 290.5 270 L 224 270 L 224 312.5 L 222.5 313 L 221.5 314 L 144 314 L 143 310.5 L 143 270 L 76.5 270 L 73 267.5 L 73 222.5 L 75.5 222 L 76.5 221 L 143 221 L 143 191.5 L 144 190.5 L 144 178.5 L 145.5 177 Z " /><path fill="rgb(55,73,85)" stroke="rgb(55,73,85)" stroke-width="1" opacity="0.9411764705882353" d="M 614.5 227 Q 622.8 225.8 626 229.5 L 625 231.5 L 626 233.5 L 624.5 235 L 616.5 236 L 611 234 Q 612.1 231.3 609.5 232 L 611 229.5 Q 610.2 226.9 613.5 228 L 614.5 227 Z " /><path fill="rgb(55,73,85)" stroke="rgb(55,73,85)" stroke-width="1" opacity="0.9411764705882353" d="M 306 228 L 350.5 228 L 351 228.5 L 351 236 L 320.5 236 L 320 236.5 L 320 244 L 347.5 244 L 348 244.5 L 348 252 L 321.5 252 L 320 253.5 Q 319.3 259.8 320.5 260 L 347.5 260 L 351 261 L 351 268.5 L 350.5 269 L 306 269 L 306 228 Z " /><path fill="rgb(55,73,85)" stroke="rgb(55,73,85)" stroke-width="1" opacity="0.9411764705882353" d="M 388 228 L 404 228 L 404 244 L 428.5 244 L 428 242.5 L 428 228 L 443 228 L 443 269 L 428 269 L 428 252 L 404 252 L 404 269 L 388 269 L 388 228 Z " /><path fill="rgb(55,73,85)" stroke="rgb(55,73,85)" stroke-width="1" opacity="0.9411764705882353" d="M 636 228 L 651 228 L 651 238 L 659 238 L 659 245 L 651 245 L 651 261 L 659 262 L 659 269 L 645.5 269 L 641.5 268 L 636 262.5 L 636 245.5 L 635.5 245 L 630 245 L 630 238 L 636 238 L 636 228 Z " /><path fill="rgb(55,73,85)" stroke="rgb(55,73,85)" stroke-width="1" opacity="0.9411764705882353" d="M 715 228 L 730 228 L 730 259.5 L 729.5 261 L 736 262 L 736 269 L 724.5 269 L 717 267 Q 718 262.8 715 263.5 L 715 228 Z " /><path fill="rgb(55,73,85)" stroke="rgb(55,73,85)" stroke-width="1" opacity="0.9411764705882353" d="M 468.5 238 Q 488.3 235.7 498 243.5 Q 497.3 245.8 499.5 245 L 499.5 247 Q 502.1 246.2 501 249.5 Q 504 250.5 503 255.5 Q 500.3 256.6 501 260 L 499 260.5 L 499.5 262 Q 497.3 261.3 498 263.5 L 492.5 267 L 485.5 269 L 467.5 269 L 454 263 Q 455.1 260.3 452.5 261 L 452.5 259 L 451 258.5 L 451 248 L 453 247.5 L 452.5 246 L 455.5 244 Q 460.3 239.3 468.5 238 Z M 474 245 L 466 250 L 466 252 L 465 257 L 473 262 Q 481 263 485 260 L 484 259 L 487 258 L 486 256 Q 490 254 486 252 L 487 250 L 485 249 L 485 248 Q 481 244 474 245 Z " /><path fill="rgb(55,73,85)" stroke="rgb(55,73,85)" stroke-width="1" opacity="0.9411764705882353" d="M 518.5 238 L 535.5 238 L 548 243.5 L 547.5 245 Q 550.5 244.2 549 248 L 536.5 248 L 529.5 244 L 524.5 244 L 522 245 L 523.5 249 L 539.5 251 L 549 254.5 L 551 257.5 L 550 259.5 L 551 263 Q 548.3 261.9 549 264.5 L 538.5 269 L 520.5 269 Q 511.9 267.3 507 263 Q 508.5 259.3 505.5 260 L 505.5 259 L 515.5 259 L 516.5 258 L 526.5 263 L 532.5 263 L 536 262 L 537 259.5 L 532.5 257 Q 518.9 256.9 510 253 Q 511.1 250.3 508.5 251 Q 510.1 249.3 507 247.5 L 507 245 Q 509.7 246.1 509 243.5 L 508.5 242 L 518.5 238 Z " /><path fill="rgb(55,73,85)" stroke="rgb(55,73,85)" stroke-width="1" opacity="0.9411764705882353" d="M 556 238 L 571.5 238 L 572 239.5 L 571.5 241 Q 577.7 236.2 590.5 238 L 602 243.5 L 601.5 245 L 604 245.5 L 603 248 L 605 248.5 L 605 258.5 Q 601.9 260.3 603.5 262 Q 601.3 261.3 602 263.5 L 595.5 268 L 591.5 269 L 577.5 269 L 571 266 L 572 268.5 L 572 279 L 556 279 L 556 238 Z M 577 245 L 572 248 Q 573 250 570 249 L 570 258 L 572 258 L 571 260 L 577 262 Q 585 263 589 260 L 588 259 L 590 258 L 590 250 Q 587 250 588 247 Q 585 244 577 245 Z " /><path fill="rgb(55,73,85)" stroke="rgb(55,73,85)" stroke-width="1" opacity="0.9411764705882353" d="M 611 238 L 626 238 L 626 269 L 611 269 L 611 238 Z " /><path fill="rgb(55,73,85)" stroke="rgb(55,73,85)" stroke-width="1" opacity="0.9411764705882353" d="M 679.5 238 Q 697.4 235.6 706 242.5 L 708 245.5 Q 705.5 247 709 248.5 L 709 269 L 694.5 269 L 695 267.5 Q 695.8 265.3 693.5 266 L 687.5 269 L 672.5 269 L 665 265.5 Q 667.3 264.3 664.5 263 L 663 262.5 L 664 259.5 L 663 257 L 666 256.5 L 665.5 255 Q 675 249.5 690.5 250 L 695 247.5 Q 692.7 243.3 685.5 244 L 682 245 Q 683.1 247.7 680.5 247 L 679.5 248 L 665.5 248 L 665.5 247 L 667 247 Q 665.5 243.3 668.5 244 L 671.5 241 L 679.5 238 Z M 694 255 L 679 258 L 679 260 L 678 262 L 682 263 Q 691 264 695 259 L 694 255 Z " /><path fill="rgb(55,73,85)" stroke="rgb(55,73,85)" stroke-width="1" opacity="0.9411764705882353" d="M 353 248 L 382.5 248 L 383 248.5 L 383 255 L 353.5 255 L 353 254.5 L 353 248 Z " /><path fill="rgb(55,73,85)" stroke="rgb(55,73,85)" stroke-width="1" opacity="0.9411764705882353" d="M 463.5 284 L 468 285.5 L 464.5 287 L 462 285.5 L 463.5 284 Z " /><path fill="rgb(55,73,85)" stroke="rgb(55,73,85)" stroke-width="1" opacity="0.9411764705882353" d="M 599 284 L 604 285.5 L 600.5 287 L 599 284 Z " /><path fill="rgb(55,73,85)" stroke="rgb(55,73,85)" stroke-width="1" opacity="0.9411764705882353" d="M 456 285 L 460 285.5 L 460 299 L 454.5 298 Q 453.3 300.3 448.5 299 L 444 297.5 L 444.5 296 L 442 295.5 L 443 293.5 L 442 291 L 451.5 288 L 456 289 L 456 285 Z M 449 290 Q 444 292 447 294 L 446 296 Q 449 298 455 297 Q 457 296 456 293 Q 455 289 449 290 Z " /><path fill="rgb(55,73,85)" stroke="rgb(55,73,85)" stroke-width="1" opacity="0.9411764705882353" d="M 507 285 L 510 285.5 L 510 295.5 L 514 297 L 514 299 L 508 299 Q 508.8 295.9 506 296.5 L 506 291.5 L 507 285 Z " /><path fill="rgb(55,73,85)" stroke="rgb(55,73,85)" stroke-width="1" opacity="0.9411764705882353" d="M 524 285 L 528 285 Q 525.8 290.6 531.5 289 L 533.5 288 L 538 289 Q 537.3 292.1 540 291.5 L 540 299 L 536 299 L 536 291.5 L 534.5 291 L 529.5 290 L 528 291.5 L 528 299 L 524 298.5 L 524 285 Z " /><path fill="rgb(55,73,85)" stroke="rgb(55,73,85)" stroke-width="1" opacity="0.9411764705882353" d="M 607 285 L 611 285 Q 609.5 288.7 612.5 288 L 613.5 290 L 611 290 L 611 297 Q 615.1 295.7 614 299 Q 608.5 300.3 607 296.5 Q 608.5 291 606 289.5 L 607 285 Z " /><path fill="rgb(55,73,85)" stroke="rgb(55,73,85)" stroke-width="1" opacity="0.9411764705882353" d="M 637 285 L 641 285 L 641 296.5 L 642 299 L 636 297.5 L 637 296.5 L 637 285 Z " /><path fill="rgb(55,73,85)" stroke="rgb(55,73,85)" stroke-width="1" opacity="0.9411764705882353" d="M 404.5 288 L 410.5 290 L 415.5 288 L 420 289.5 Q 417.8 290.8 420.5 292 Q 423.5 291.1 422 295.5 L 421 299 L 418 299 L 418 292.5 Q 417 289 411.5 290 L 411.5 292 L 410 292.5 L 410 299 L 407 299 L 407 292.5 L 406 291.5 L 406.5 290 Q 401.3 288.8 400 291.5 L 400 299 L 396 299 L 396 289 L 403.5 289 L 404.5 288 Z " /><path fill="rgb(55,73,85)" stroke="rgb(55,73,85)" stroke-width="1" opacity="0.9411764705882353" d="M 431.5 288 L 441 291 L 439.5 294 L 427.5 294 L 427 296 Q 429.1 297.6 434.5 297 L 439 296 Q 440.3 299.3 435.5 298 Q 434.3 300.3 429.5 299 L 426 298 Q 427.1 294.7 423 296 L 423 292.5 L 425.5 290 L 431.5 288 Z M 430 290 L 427 292 L 430 293 Q 435 294 437 292 Q 435 289 430 290 Z " /><path fill="rgb(55,73,85)" stroke="rgb(55,73,85)" stroke-width="1" opacity="0.9411764705882353" d="M 477.5 288 Q 483 287.5 485 290.5 L 482.5 291 Q 481 288.5 475.5 290 Q 471.2 291.8 474 293.5 Q 472.9 296.8 475.5 296 L 480.5 297 L 485 296 Q 486.3 299 482.5 298 Q 481 300.5 475.5 299 L 472 298 Q 473 295 470 296 L 470 291.5 L 477.5 288 Z " /><path fill="rgb(55,73,85)" stroke="rgb(55,73,85)" stroke-width="1" opacity="0.9411764705882353" d="M 495.5 288 L 503 289.5 L 502 290.5 L 505 293.5 Q 507.6 300.8 501.5 299 L 498.5 298 Q 497.3 300.3 492.5 299 L 489 297.5 L 490 295.5 L 489.5 294 L 498.5 293 L 501 291.5 Q 500 289 495.5 290 L 491.5 292 L 491 289 L 495.5 288 Z M 496 294 L 495 295 Q 492 294 493 297 Q 499 299 501 295 L 496 294 Z " /><path fill="rgb(55,73,85)" stroke="rgb(55,73,85)" stroke-width="1" opacity="0.9411764705882353" d="M 549.5 288 Q 556 288 559 291.5 L 558 294.5 Q 560.7 296.3 556.5 298 L 547.5 299 L 544 298 Q 545 295 542 296 L 542 291.5 L 549.5 288 Z M 549 290 L 545 293 L 548 297 Q 552 298 554 296 Q 557 297 555 292 Q 554 289 549 290 Z " /><path fill="rgb(55,73,85)" stroke="rgb(55,73,85)" stroke-width="1" opacity="0.9411764705882353" d="M 567.5 288 L 575 289.5 L 574 292 L 570.5 290 L 567.5 290 L 566.5 292 L 577 294 L 575.5 298 L 566.5 299 L 562 296.5 L 566.5 296 L 572 297 Q 573.1 294.3 570.5 295 L 563 293 Q 560.8 287.4 566.5 289 L 567.5 288 Z " /><path fill="rgb(55,73,85)" stroke="rgb(55,73,85)" stroke-width="1" opacity="0.9411764705882353" d="M 588.5 288 L 593.5 289 L 596 291.5 L 595 295.5 L 595.5 297 L 591.5 299 L 586.5 299 L 583 298 L 583 303 L 581 303 L 581 289 L 587.5 289 L 588.5 288 Z M 585 290 Q 586 293 583 292 Q 581 296 585 295 L 584 297 L 591 297 L 593 294 L 592 293 L 592 292 Q 590 289 585 290 Z " /><path fill="rgb(55,73,85)" stroke="rgb(55,73,85)" stroke-width="1" opacity="0.9411764705882353" d="M 624.5 288 L 633 290 L 632 299 L 627.5 298 Q 626 300.5 620.5 299 L 617 297 Q 615.9 294.3 618.5 295 Q 621.3 291.6 628 293 Q 629.8 287.8 622.5 290 Q 620.8 293.8 619 290.5 L 624.5 288 Z M 624 294 L 623 295 Q 620 294 621 297 Q 626 298 628 296 Q 629 292 624 294 Z " /><path fill="rgb(55,73,85)" stroke="rgb(55,73,85)" stroke-width="1" opacity="0.9411764705882353" d="M 464 289 L 467 289.5 L 467 299 L 464 298.5 L 464 289 Z " /><path fill="rgb(55,73,85)" stroke="rgb(55,73,85)" stroke-width="1" opacity="0.9411764705882353" d="M 600 289 L 604 289.5 L 603 290.5 L 603 299 L 600 298.5 L 600 289 Z " /><path fill="rgb(146,194,89)" stroke="rgb(146,194,89)" stroke-width="1" opacity="0.9058823529411765" d="M 143 176 Q 146 175 145 178 Q 142 179 143 176 Z " /><path fill="rgb(146,194,89)" stroke="rgb(146,194,89)" stroke-width="1" opacity="0.9058823529411765" d="M 146.5 176 L 222 176.5 L 146.5 177 L 146.5 176 Z " /><path fill="rgb(146,194,89)" stroke="rgb(146,194,89)" stroke-width="1" opacity="0.9058823529411765" d="M 223 176 Q 226 175 225 178 Q 222 179 223 176 Z " /><path fill="rgb(146,194,89)" stroke="rgb(146,194,89)" stroke-width="1" opacity="0.9058823529411765" d="M 139.5 179 L 140 191 L 142 191 L 142 179.5 L 144 179 L 144 190.5 L 143 191.5 L 143 221 L 126 221 L 126 194.5 L 124 194 L 123.5 221 L 123 194.5 L 124 192 Q 126.7 190.9 126 193.5 L 127 193.5 Q 125.9 190.2 128.5 191 L 130.5 191 L 139 191 L 139.5 179 Z " /><path fill="rgb(146,194,89)" stroke="rgb(146,194,89)" stroke-width="1" opacity="0.9058823529411765" d="M 152 191 L 195.5 191 L 197.5 192 L 199.5 192 L 202 193.5 L 202 222.5 Q 201.8 223.8 195.5 223 L 171.5 231 Q 160.1 237.1 152 246.5 L 147 254.5 Q 148.4 257.6 153.5 257 L 156 256 L 158 251.5 L 168.5 241 Q 180.9 230.9 200.5 228 L 202 228.5 Q 201.1 225.5 205.5 227 L 205.5 228 L 202 229.5 L 204 230 L 205 233.5 L 204.5 235 L 206.5 234 L 207.5 235 L 264.5 235 L 265.5 236 L 267.5 235 L 268.5 238 L 270.5 237 L 273 238 L 273 264 L 285.5 264 L 285.5 265 L 268.5 265 L 267.5 264 L 220.5 264 L 216 266.5 L 216 279 L 207.5 279 L 205.5 279 L 204 279.5 L 204 281.5 L 204 284 L 202 284.5 L 202 308.5 L 201 308.5 L 201 284.5 L 199 284 L 199 309 L 152 309 L 152 266.5 L 150.5 265 L 147.5 264 L 82 264 L 82 235 L 117.5 235 L 121.5 232 L 123.5 233 L 123 231.5 L 123.5 226 L 124 232 L 126 232 L 126 226.5 L 126.5 226 L 150.5 226 L 152 224.5 L 152 191 Z M 199 193 L 199 222 L 201 222 L 201 194 L 199 193 Z M 202 230 L 201 233 L 202 233 L 202 230 Z M 271 238 L 270 264 L 271 264 L 271 238 Z M 202 281 L 201 284 L 202 284 L 202 281 Z " /><path fill="rgb(146,194,89)" stroke="rgb(146,194,89)" stroke-width="1" opacity="0.9058823529411765" d="M 222.5 211 L 225 211.5 L 222.5 212 L 222.5 211 Z " /><path fill="rgb(146,194,89)" stroke="rgb(146,194,89)" stroke-width="1" opacity="0.9058823529411765" d="M 206.5 221 L 212 221.5 L 206.5 222 L 206.5 221 Z " /><path fill="rgb(146,194,89)" stroke="rgb(146,194,89)" stroke-width="1" opacity="0.9058823529411765" d="M 81.5 226 L 84 226.5 L 81.5 227 L 81.5 226 Z " /><path fill="rgb(146,194,89)" stroke="rgb(146,194,89)" stroke-width="1" opacity="0.9058823529411765" d="M 210.5 226 L 220 226.5 L 210.5 227 L 210.5 226 Z " /><path fill="rgb(146,194,89)" stroke="rgb(146,194,89)" stroke-width="1" opacity="0.9058823529411765" d="M 284.5 226 L 287 226.5 L 284.5 227 L 284.5 226 Z " /><path fill="rgb(146,194,89)" stroke="rgb(146,194,89)" stroke-width="1" opacity="0.9058823529411765" d="M 612 226 Q 615 225 614 228 Q 611 229 612 226 Z " /><path fill="rgb(146,194,89)" stroke="rgb(146,194,89)" stroke-width="1" opacity="0.9058823529411765" d="M 615.5 226 L 620 226.5 L 615.5 227 L 615.5 226 Z " /><path fill="rgb(146,194,89)" stroke="rgb(146,194,89)" stroke-width="1" opacity="0.9058823529411765" d="M 622.5 226 L 625.5 228 L 627.5 227 L 628.5 229 L 626.5 228 L 624.5 229 L 622 228 L 622.5 226 Z " /><path fill="rgb(146,194,89)" stroke="rgb(146,194,89)" stroke-width="1" opacity="0.9058823529411765" d="M 300 227 L 302 227.5 L 302 269 L 300 268.5 L 300 227 Z " /><path fill="rgb(146,194,89)" stroke="rgb(146,194,89)" stroke-width="1" opacity="0.9058823529411765" d="M 303 227 L 351 227.5 L 306 228 L 306 268.5 L 303 269 L 303 227 Z " /><path fill="rgb(146,194,89)" stroke="rgb(146,194,89)" stroke-width="1" opacity="0.9058823529411765" d="M 386 227 L 404 227.5 L 388 228 L 388 268.5 L 386 269 L 386 227 Z " /><path fill="rgb(146,194,89)" stroke="rgb(146,194,89)" stroke-width="1" opacity="0.9058823529411765" d="M 428.5 227 L 446 227 L 446 269 L 443 268.5 L 443 228 L 428.5 228 L 428.5 227 Z " /><path fill="rgb(146,194,89)" stroke="rgb(146,194,89)" stroke-width="1" opacity="0.9058823529411765" d="M 447 227 L 449 227.5 L 449 244.5 L 449 246.5 L 447.5 251 L 447 227 Z " /><path fill="rgb(146,194,89)" stroke="rgb(146,194,89)" stroke-width="1" opacity="0.9058823529411765" d="M 636.5 227 L 651.5 227 L 653.5 228 L 655.5 228 L 657 228.5 L 657 238 L 655 237.5 L 655 228.5 L 654 228.5 L 654 237.5 L 651 238 L 651 228 L 636.5 228 L 636.5 227 Z " /><path fill="rgb(146,194,89)" stroke="rgb(146,194,89)" stroke-width="1" opacity="0.9058823529411765" d="M 714.5 227 L 730 227.5 L 714.5 228 L 714.5 227 Z " /><path fill="rgb(146,194,89)" stroke="rgb(146,194,89)" stroke-width="1" opacity="0.9058823529411765" d="M 609 229 L 611 229.5 L 609 230.5 L 609 229 Z " /><path fill="rgb(146,194,89)" stroke="rgb(146,194,89)" stroke-width="1" opacity="0.9058823529411765" d="M 625 230 Q 629.1 228.7 628 232 Q 623.9 233.3 625 230 Z " /><path fill="rgb(146,194,89)" stroke="rgb(146,194,89)" stroke-width="1" opacity="0.9058823529411765" d="M 606.5 232 L 607 234 L 611 232 Q 609.9 234.7 612.5 234 L 611.5 236 Q 610 232.5 608.5 235 L 606 233.5 L 606.5 232 Z " /><path fill="rgb(146,194,89)" stroke="rgb(146,194,89)" stroke-width="1" opacity="0.9058823529411765" d="M 59.5 235 L 61.5 236 L 62.5 235 L 73 235 L 73 267.5 L 74.5 269 L 76.5 270 L 143 270 L 143 310.5 L 144 314 L 200.5 314 L 201.5 315 L 203.5 314 L 203.5 315 Q 200.8 314.4 202 320.5 L 198.5 323 L 196.5 322 L 195.5 323 L 129.5 323 L 127.5 322 L 125.5 322 Q 123.3 322.8 124 320.5 L 123 319.5 L 123 282.5 L 123.5 281 L 121.5 282 L 117.5 279 L 60.5 279 L 58.5 278 L 56.5 278 L 52 276 L 52 238.5 L 53.5 238 L 56.5 236 Q 58 238.5 59.5 235 Z M 55 238 L 54 276 L 55 276 L 55 238 Z M 124 282 L 124 320 L 126 320 L 126 283 L 124 282 Z M 199 315 L 199 321 L 201 321 L 201 315 L 199 315 Z " /><path fill="rgb(146,194,89)" stroke="rgb(146,194,89)" stroke-width="1" opacity="0.9058823529411765" d="M 620.5 235 L 623 235.5 L 620.5 236 L 620.5 235 Z " /><path fill="rgb(146,194,89)" stroke="rgb(146,194,89)" stroke-width="1" opacity="0.9058823529411765" d="M 320 236 L 322 236.5 L 322 244 L 320 243.5 L 320 236 Z " /><path fill="rgb(146,194,89)" stroke="rgb(146,194,89)" stroke-width="1" opacity="0.9058823529411765" d="M 324.5 236 L 325 243.5 L 324 243.5 L 324.5 236 Z " /><path fill="rgb(146,194,89)" stroke="rgb(146,194,89)" stroke-width="1" opacity="0.9058823529411765" d="M 467.5 237 L 468 239 L 465 238.5 L 467.5 237 Z " /><path fill="rgb(146,194,89)" stroke="rgb(146,194,89)" stroke-width="1" opacity="0.9058823529411765" d="M 470.5 237 L 482 237.5 L 470.5 238 L 470.5 237 Z " /><path fill="rgb(146,194,89)" stroke="rgb(146,194,89)" stroke-width="1" opacity="0.9058823529411765" d="M 484.5 237 L 489.5 239 L 492 238 Q 490.9 240.7 493.5 240 L 495 239.5 L 492.5 241 L 485.5 239 L 484.5 237 Z " /><path fill="rgb(146,194,89)" stroke="rgb(146,194,89)" stroke-width="1" opacity="0.9058823529411765" d="M 518.5 237 L 517.5 239 L 516 238.5 L 518.5 237 Z " /><path fill="rgb(146,194,89)" stroke="rgb(146,194,89)" stroke-width="1" opacity="0.9058823529411765" d="M 521.5 237 L 534 237.5 L 521.5 238 L 521.5 237 Z " /><path fill="rgb(146,194,89)" stroke="rgb(146,194,89)" stroke-width="1" opacity="0.9058823529411765" d="M 535.5 237 L 538 238.5 L 536.5 239 L 535.5 237 Z " /><path fill="rgb(146,194,89)" stroke="rgb(146,194,89)" stroke-width="1" opacity="0.9058823529411765" d="M 575 237 L 577.5 238 L 578.5 237 L 589.5 237 L 589.5 238 Q 579.9 236.9 575 239 L 575 237 Z " /><path fill="rgb(146,194,89)" stroke="rgb(146,194,89)" stroke-width="1" opacity="0.9058823529411765" d="M 591 237 L 594 238.5 L 591 239 L 591 237 Z " /><path fill="rgb(146,194,89)" stroke="rgb(146,194,89)" stroke-width="1" opacity="0.9058823529411765" d="M 679.5 237 L 681 237.5 L 666.5 244 Q 664.8 241.3 663 245.5 L 662.5 247 L 662 245 L 659 245 L 659 238 L 662 238 L 662 244.5 L 663 244.5 Q 661.5 236.9 665 238 Q 664 241.8 666.5 243 L 670 241.5 L 668 240.5 L 670.5 239 L 673 240 L 673.5 238 L 675.5 239 L 679.5 237 Z " /><path fill="rgb(146,194,89)" stroke="rgb(146,194,89)" stroke-width="1" opacity="0.9058823529411765" d="M 682.5 237 L 694 237.5 L 682.5 238 L 682.5 237 Z " /><path fill="rgb(146,194,89)" stroke="rgb(146,194,89)" stroke-width="1" opacity="0.9058823529411765" d="M 695.5 237 L 698 238.5 L 696.5 239 L 695.5 237 Z " /><path fill="rgb(146,194,89)" stroke="rgb(146,194,89)" stroke-width="1" opacity="0.9058823529411765" d="M 462.5 238 L 463.5 240 Q 460.7 240.7 462.5 238 Z " /><path fill="rgb(146,194,89)" stroke="rgb(146,194,89)" stroke-width="1" opacity="0.9058823529411765" d="M 540.5 238 Q 542 241.5 543.5 239 Q 545.8 238.3 545 240.5 L 546.5 240 L 549 241.5 L 547.5 241 L 544.5 242 L 539 239.5 L 540.5 238 Z " /><path fill="rgb(146,194,89)" stroke="rgb(146,194,89)" stroke-width="1" opacity="0.9058823529411765" d="M 596.5 238 L 595.5 240 L 596.5 238 Z " /><path fill="rgb(146,194,89)" stroke="rgb(146,194,89)" stroke-width="1" opacity="0.9058823529411765" d="M 700.5 238 L 705 240.5 L 702.5 241 L 700 240 L 700.5 238 Z " /><path fill="rgb(146,194,89)" stroke="rgb(146,194,89)" stroke-width="1" opacity="0.9058823529411765" d="M 459.5 239 L 460.5 241 L 454.5 244 L 452.5 243 L 451 243.5 L 456.5 240 Q 458 242.5 459.5 239 Z " /><path fill="rgb(146,194,89)" stroke="rgb(146,194,89)" stroke-width="1" opacity="0.9058823529411765" d="M 597.5 240 L 600.5 241 L 602.5 241 L 604 241.5 L 602.5 242 L 600.5 242 Q 596.7 242.5 597.5 240 Z " /><path fill="rgb(146,194,89)" stroke="rgb(146,194,89)" stroke-width="1" opacity="0.9058823529411765" d="M 426.5 243 L 429 243.5 L 426.5 244 L 426.5 243 Z " /><path fill="rgb(146,194,89)" stroke="rgb(146,194,89)" stroke-width="1" opacity="0.9058823529411765" d="M 503.5 243 Q 506.1 242.3 505 245 L 502 244.5 L 503.5 243 Z " /><path fill="rgb(146,194,89)" stroke="rgb(146,194,89)" stroke-width="1" opacity="0.9058823529411765" d="M 506 243 Q 510.1 241.7 509 245 L 506.5 246 L 506 243 Z " /><path fill="rgb(146,194,89)" stroke="rgb(146,194,89)" stroke-width="1" opacity="0.9058823529411765" d="M 524.5 244 L 530 244.5 L 524.5 245 L 524.5 244 Z " /><path fill="rgb(146,194,89)" stroke="rgb(146,194,89)" stroke-width="1" opacity="0.9058823529411765" d="M 547.5 244 L 550 244.5 L 547.5 245 L 547.5 244 Z " /><path fill="rgb(146,194,89)" stroke="rgb(146,194,89)" stroke-width="1" opacity="0.9058823529411765" d="M 601.5 244 L 604 244.5 L 601.5 245 L 601.5 244 Z " /><path fill="rgb(146,194,89)" stroke="rgb(146,194,89)" stroke-width="1" opacity="0.9058823529411765" d="M 685.5 244 Q 692.7 243.3 695 247.5 L 692 248 Q 693 245 690 246 L 689.5 248 L 689 246 Q 685.2 246.8 685.5 244 Z " /><path fill="rgb(146,194,89)" stroke="rgb(146,194,89)" stroke-width="1" opacity="0.9058823529411765" d="M 473.5 245 L 480 245.5 L 479.5 247 L 482.5 246 L 485 247.5 L 482.5 248 L 480.5 248 Q 478.8 245.2 473.5 246 L 473.5 245 Z " /><path fill="rgb(146,194,89)" stroke="rgb(146,194,89)" stroke-width="1" opacity="0.9058823529411765" d="M 576.5 245 L 584 245.5 L 577.5 247 L 576.5 245 Z " /><path fill="rgb(146,194,89)" stroke="rgb(146,194,89)" stroke-width="1" opacity="0.9058823529411765" d="M 651 245 L 654 245.5 L 654 260.5 L 655 260.5 L 655 245.5 L 657 245 L 657 260.5 L 659.5 261 L 662 262 L 662 269 L 659 269 L 659 262 L 653.5 262 L 651 261 L 651 245 Z " /><path fill="rgb(146,194,89)" stroke="rgb(146,194,89)" stroke-width="1" opacity="0.9058823529411765" d="M 665 245 Q 668 244 667 247 Q 664 248 665 245 Z " /><path fill="rgb(146,194,89)" stroke="rgb(146,194,89)" stroke-width="1" opacity="0.9058823529411765" d="M 499.5 246 L 502 246.5 L 499.5 247 L 499.5 246 Z " /><path fill="rgb(146,194,89)" stroke="rgb(146,194,89)" stroke-width="1" opacity="0.9058823529411765" d="M 573.5 246 L 575 246.5 L 572.5 248 L 573.5 246 Z " /><path fill="rgb(146,194,89)" stroke="rgb(146,194,89)" stroke-width="1" opacity="0.9058823529411765" d="M 585.5 246 L 588 247.5 L 586.5 248 L 585.5 246 Z " /><path fill="rgb(146,194,89)" stroke="rgb(146,194,89)" stroke-width="1" opacity="0.9058823529411765" d="M 603 246 Q 607.1 244.7 606 248 Q 601.9 249.3 603 246 Z " /><path fill="rgb(146,194,89)" stroke="rgb(146,194,89)" stroke-width="1" opacity="0.9058823529411765" d="M 707.5 246 Q 711.3 245 710 248 L 707.5 246 Z " /><path fill="rgb(146,194,89)" stroke="rgb(146,194,89)" stroke-width="1" opacity="0.9058823529411765" d="M 450.5 247 L 453 247.5 L 450.5 248 L 450.5 247 Z " /><path fill="rgb(146,194,89)" stroke="rgb(146,194,89)" stroke-width="1" opacity="0.9058823529411765" d="M 531.5 247 L 533.5 248 L 535.5 247 L 536.5 248 L 548.5 248 L 550.5 247 L 552.5 248 L 554 247.5 L 551.5 249 L 549.5 249 L 535.5 249 L 534.5 248 L 532 249.5 L 531.5 247 Z " /><path fill="rgb(146,194,89)" stroke="rgb(146,194,89)" stroke-width="1" opacity="0.9058823529411765" d="M 680.5 247 L 683.5 248 L 685 247.5 L 684.5 249 L 686 249.5 L 684.5 250 L 681.5 248 L 680.5 249 L 665.5 249 L 665.5 248 L 679.5 248 L 680.5 247 Z " /><path fill="rgb(146,194,89)" stroke="rgb(146,194,89)" stroke-width="1" opacity="0.9058823529411765" d="M 506 248 L 509 249.5 L 506 250 L 506 248 Z " /><path fill="rgb(146,194,89)" stroke="rgb(146,194,89)" stroke-width="1" opacity="0.9058823529411765" d="M 523.5 248 L 526 248.5 L 523.5 249 L 523.5 248 Z " /><path fill="rgb(146,194,89)" stroke="rgb(146,194,89)" stroke-width="1" opacity="0.9058823529411765" d="M 527 248 L 530 249.5 L 527 250 L 527 248 Z " /><path fill="rgb(146,194,89)" stroke="rgb(146,194,89)" stroke-width="1" opacity="0.9058823529411765" d="M 467.5 249 L 468 251 L 465 250.5 L 467.5 249 Z " /><path fill="rgb(146,194,89)" stroke="rgb(146,194,89)" stroke-width="1" opacity="0.9058823529411765" d="M 484.5 249 L 487 249.5 L 484.5 250 L 484.5 249 Z " /><path fill="rgb(146,194,89)" stroke="rgb(146,194,89)" stroke-width="1" opacity="0.9058823529411765" d="M 501.5 249 Q 503.8 248.3 503 250.5 L 501.5 249 Z " /><path fill="rgb(146,194,89)" stroke="rgb(146,194,89)" stroke-width="1" opacity="0.9058823529411765" d="M 687.5 249 L 691 249.5 L 687.5 250 L 687.5 249 Z " /><path fill="rgb(146,194,89)" stroke="rgb(146,194,89)" stroke-width="1" opacity="0.9058823529411765" d="M 535.5 250 L 538 250.5 L 535.5 251 L 535.5 250 Z " /><path fill="rgb(146,194,89)" stroke="rgb(146,194,89)" stroke-width="1" opacity="0.9058823529411765" d="M 540.5 250 L 543 251.5 L 540 252 L 540.5 250 Z " /><path fill="rgb(146,194,89)" stroke="rgb(146,194,89)" stroke-width="1" opacity="0.9058823529411765" d="M 605 250 L 607 250.5 L 607 257 L 605 256.5 L 605 250 Z " /><path fill="rgb(146,194,89)" stroke="rgb(146,194,89)" stroke-width="1" opacity="0.9058823529411765" d="M 676.5 250 L 678 250.5 L 673.5 252 L 673.5 251 L 676.5 250 Z " /><path fill="rgb(146,194,89)" stroke="rgb(146,194,89)" stroke-width="1" opacity="0.9058823529411765" d="M 679.5 250 L 682 250.5 L 679.5 251 L 679.5 250 Z " /><path fill="rgb(146,194,89)" stroke="rgb(146,194,89)" stroke-width="1" opacity="0.9058823529411765" d="M 449 251 L 451 251 L 451 256 L 449 256 L 449 251 Z " /><path fill="rgb(146,194,89)" stroke="rgb(146,194,89)" stroke-width="1" opacity="0.9058823529411765" d="M 545.5 251 L 546 253 L 544 252.5 L 545.5 251 Z " /><path fill="rgb(146,194,89)" stroke="rgb(146,194,89)" stroke-width="1" opacity="0.9058823529411765" d="M 670.5 251 L 671.5 253 Q 668.7 253.7 670.5 251 Z " /><path fill="rgb(146,194,89)" stroke="rgb(146,194,89)" stroke-width="1" opacity="0.9058823529411765" d="M 321.5 252 L 348 252.5 L 325 253 L 324.5 260 L 324 253 L 322 253 L 322 259.5 L 320 260 L 320 253.5 L 321.5 252 Z " /><path fill="rgb(146,194,89)" stroke="rgb(146,194,89)" stroke-width="1" opacity="0.9058823529411765" d="M 404.5 252 L 428 252.5 L 404.5 253 L 404.5 252 Z " /><path fill="rgb(146,194,89)" stroke="rgb(146,194,89)" stroke-width="1" opacity="0.9058823529411765" d="M 486.5 252 Q 489.5 253.5 486.5 255 L 486.5 252 Z " /><path fill="rgb(146,194,89)" stroke="rgb(146,194,89)" stroke-width="1" opacity="0.9058823529411765" d="M 514.5 254 Q 516.8 253.3 516 255.5 L 514.5 254 Z " /><path fill="rgb(146,194,89)" stroke="rgb(146,194,89)" stroke-width="1" opacity="0.9058823529411765" d="M 353.5 255 L 383 255.5 L 353.5 256 L 353.5 255 Z " /><path fill="rgb(146,194,89)" stroke="rgb(146,194,89)" stroke-width="1" opacity="0.9058823529411765" d="M 447.5 256 L 450 261.5 L 449 262.5 L 449 269 L 447 268.5 L 447.5 256 Z " /><path fill="rgb(146,194,89)" stroke="rgb(146,194,89)" stroke-width="1" opacity="0.9058823529411765" d="M 465.5 256 Q 468.8 254.9 468 257.5 L 466.5 257 L 465.5 256 Z " /><path fill="rgb(146,194,89)" stroke="rgb(146,194,89)" stroke-width="1" opacity="0.9058823529411765" d="M 502.5 256 L 503 258 L 501 257.5 L 502.5 256 Z " /><path fill="rgb(146,194,89)" stroke="rgb(146,194,89)" stroke-width="1" opacity="0.9058823529411765" d="M 524.5 256 L 529 257.5 L 527.5 258 L 524.5 257 L 524.5 256 Z " /><path fill="rgb(146,194,89)" stroke="rgb(146,194,89)" stroke-width="1" opacity="0.9058823529411765" d="M 663.5 256 L 666 256.5 L 663.5 257 L 663.5 256 Z " /><path fill="rgb(146,194,89)" stroke="rgb(146,194,89)" stroke-width="1" opacity="0.9058823529411765" d="M 685.5 256 L 689 256.5 L 682.5 259 L 680.5 259 L 678 258.5 L 681.5 257 L 683.5 258 L 685.5 256 Z " /><path fill="rgb(146,194,89)" stroke="rgb(146,194,89)" stroke-width="1" opacity="0.9058823529411765" d="M 484.5 257 L 487 257.5 L 484.5 258 L 484.5 257 Z " /><path fill="rgb(146,194,89)" stroke="rgb(146,194,89)" stroke-width="1" opacity="0.9058823529411765" d="M 505.5 257 L 506.5 258 L 516 258.5 L 505 259 L 505.5 257 Z " /><path fill="rgb(146,194,89)" stroke="rgb(146,194,89)" stroke-width="1" opacity="0.9058823529411765" d="M 530.5 257 L 533 257.5 Q 530.9 260.8 530.5 257 Z " /><path fill="rgb(146,194,89)" stroke="rgb(146,194,89)" stroke-width="1" opacity="0.9058823529411765" d="M 450.5 258 L 453 259.5 L 450 260 L 450.5 258 Z " /><path fill="rgb(146,194,89)" stroke="rgb(146,194,89)" stroke-width="1" opacity="0.9058823529411765" d="M 517.5 258 L 521.5 259 L 523.5 258 L 524.5 260 L 522.5 259 L 520.5 260 L 517.5 259 L 517.5 258 Z " /><path fill="rgb(146,194,89)" stroke="rgb(146,194,89)" stroke-width="1" opacity="0.9058823529411765" d="M 534.5 258 L 537 259.5 L 536 262 L 534 261.5 L 535 259.5 L 534.5 258 Z " /><path fill="rgb(146,194,89)" stroke="rgb(146,194,89)" stroke-width="1" opacity="0.9058823529411765" d="M 550 258 Q 554.1 256.7 553 260 Q 548.9 261.3 550 258 Z " /><path fill="rgb(146,194,89)" stroke="rgb(146,194,89)" stroke-width="1" opacity="0.9058823529411765" d="M 692 258 L 695 258.5 L 692 260 L 692 258 Z " /><path fill="rgb(146,194,89)" stroke="rgb(146,194,89)" stroke-width="1" opacity="0.9058823529411765" d="M 479.5 259 L 481.5 260 L 484.5 259 L 484.5 260 L 481.5 261 L 479.5 260 L 479.5 262 L 472 261.5 Q 477.8 262.3 479.5 259 Z " /><path fill="rgb(146,194,89)" stroke="rgb(146,194,89)" stroke-width="1" opacity="0.9058823529411765" d="M 571.5 259 L 574.5 260 L 576.5 259 L 578 262 L 576 261.5 L 576.5 260 L 573.5 261 L 571.5 259 Z " /><path fill="rgb(146,194,89)" stroke="rgb(146,194,89)" stroke-width="1" opacity="0.9058823529411765" d="M 583.5 259 L 585.5 260 L 588.5 259 L 588.5 260 L 585.5 261 L 583.5 260 L 583.5 262 Q 581.3 262.8 582 260.5 L 583.5 259 Z " /><path fill="rgb(146,194,89)" stroke="rgb(146,194,89)" stroke-width="1" opacity="0.9058823529411765" d="M 604.5 259 Q 607.1 258.3 606 261 L 603 260.5 L 604.5 259 Z " /><path fill="rgb(146,194,89)" stroke="rgb(146,194,89)" stroke-width="1" opacity="0.9058823529411765" d="M 348.5 260 L 351 260.5 L 348.5 261 L 348.5 260 Z " /><path fill="rgb(146,194,89)" stroke="rgb(146,194,89)" stroke-width="1" opacity="0.9058823529411765" d="M 499.5 260 L 503 261.5 Q 502.3 263.8 504.5 263 L 506.5 263 L 516 267 L 515.5 269 L 510.5 266 L 508.5 267 L 508.5 266 L 510 265.5 L 506.5 264 L 504.5 264 L 502 262.5 Q 502.8 259.9 499.5 261 L 499.5 260 Z " /><path fill="rgb(146,194,89)" stroke="rgb(146,194,89)" stroke-width="1" opacity="0.9058823529411765" d="M 505 260 Q 508 259 507 262 Q 504 263 505 260 Z " /><path fill="rgb(146,194,89)" stroke="rgb(146,194,89)" stroke-width="1" opacity="0.9058823529411765" d="M 729.5 260 L 733.5 261 L 735.5 261 L 737.5 262 L 739.5 261 Q 742.5 262.5 741 268.5 L 740 268.5 Q 741.5 260.9 738 262 L 738 268.5 L 736 269 L 736 262 L 731.5 262 L 729.5 260 Z " /><path fill="rgb(146,194,89)" stroke="rgb(146,194,89)" stroke-width="1" opacity="0.9058823529411765" d="M 531.5 261 L 532.5 263 L 526 262.5 L 531.5 261 Z " /><path fill="rgb(146,194,89)" stroke="rgb(146,194,89)" stroke-width="1" opacity="0.9058823529411765" d="M 678.5 261 L 681.5 262 L 683.5 261 L 685.5 262 Q 686.8 259.8 688 262.5 L 681.5 263 L 678.5 262 L 678.5 261 Z " /><path fill="rgb(146,194,89)" stroke="rgb(146,194,89)" stroke-width="1" opacity="0.9058823529411765" d="M 451.5 263 L 453.5 264 L 455.5 263 L 461 266.5 L 459.5 268 Q 458 264.5 456.5 267 Q 451.9 265.8 451.5 263 Z " /><path fill="rgb(146,194,89)" stroke="rgb(146,194,89)" stroke-width="1" opacity="0.9058823529411765" d="M 636.5 263 L 641 269 Q 638.3 270.1 639 267.5 L 636.5 266 L 635 266.5 L 636.5 263 Z " /><path fill="rgb(146,194,89)" stroke="rgb(146,194,89)" stroke-width="1" opacity="0.9058823529411765" d="M 663 263 L 666 264.5 L 663 265 L 663 263 Z " /><path fill="rgb(146,194,89)" stroke="rgb(146,194,89)" stroke-width="1" opacity="0.9058823529411765" d="M 714 264 Q 718.1 262.3 717 266.5 L 715.5 266 Q 712.9 266.7 714 264 Z " /><path fill="rgb(146,194,89)" stroke="rgb(146,194,89)" stroke-width="1" opacity="0.9058823529411765" d="M 598.5 265 L 601.5 266 L 603.5 265 L 603.5 266 L 601.5 267 L 599.5 266 L 597.5 267 L 598.5 265 Z " /><path fill="rgb(146,194,89)" stroke="rgb(146,194,89)" stroke-width="1" opacity="0.9058823529411765" d="M 571.5 266 L 577 268 Q 578 271 575 270 Q 576.3 267 572.5 268 L 571.5 266 Z " /><path fill="rgb(146,194,89)" stroke="rgb(146,194,89)" stroke-width="1" opacity="0.9058823529411765" d="M 663.5 266 L 665 269 Q 661.5 270.1 663.5 266 Z " /><path fill="rgb(146,194,89)" stroke="rgb(146,194,89)" stroke-width="1" opacity="0.9058823529411765" d="M 693.5 266 L 695 266.5 L 691.5 268 L 691.5 267 L 693.5 266 Z " /><path fill="rgb(146,194,89)" stroke="rgb(146,194,89)" stroke-width="1" opacity="0.9058823529411765" d="M 462 267 L 464 267.5 L 462 268.5 L 462 267 Z " /><path fill="rgb(146,194,89)" stroke="rgb(146,194,89)" stroke-width="1" opacity="0.9058823529411765" d="M 489.5 267 Q 493.3 266 492 269 L 489.5 268 L 486.5 270 L 486 268 L 489.5 267 Z " /><path fill="rgb(146,194,89)" stroke="rgb(146,194,89)" stroke-width="1" opacity="0.9058823529411765" d="M 543 267 Q 546 266 545 269 Q 542 270 543 267 Z " /><path fill="rgb(146,194,89)" stroke="rgb(146,194,89)" stroke-width="1" opacity="0.9058823529411765" d="M 293.5 268 L 296.5 269 L 298 268.5 L 295.5 270 L 293.5 270 L 291 269.5 L 293.5 268 Z " /><path fill="rgb(146,194,89)" stroke="rgb(146,194,89)" stroke-width="1" opacity="0.9058823529411765" d="M 465.5 268 L 468 269.5 L 466.5 269 L 465.5 268 Z " /><path fill="rgb(146,194,89)" stroke="rgb(146,194,89)" stroke-width="1" opacity="0.9058823529411765" d="M 518.5 268 L 521 269.5 L 519.5 270 L 518.5 268 Z " /><path fill="rgb(146,194,89)" stroke="rgb(146,194,89)" stroke-width="1" opacity="0.9058823529411765" d="M 539.5 268 L 542 268.5 L 538.5 270 L 539.5 268 Z " /><path fill="rgb(146,194,89)" stroke="rgb(146,194,89)" stroke-width="1" opacity="0.9058823529411765" d="M 592.5 268 L 594 268.5 L 591.5 270 L 592.5 268 Z " /><path fill="rgb(146,194,89)" stroke="rgb(146,194,89)" stroke-width="1" opacity="0.9058823529411765" d="M 642.5 268 L 645 268.5 L 642.5 269 L 642.5 268 Z " /><path fill="rgb(146,194,89)" stroke="rgb(146,194,89)" stroke-width="1" opacity="0.9058823529411765" d="M 670.5 268 L 673 269.5 L 671.5 270 L 670.5 268 Z " /><path fill="rgb(146,194,89)" stroke="rgb(146,194,89)" stroke-width="1" opacity="0.9058823529411765" d="M 688.5 268 Q 690.8 267.3 690 269.5 L 688.5 268 Z " /><path fill="rgb(146,194,89)" stroke="rgb(146,194,89)" stroke-width="1" opacity="0.9058823529411765" d="M 721.5 268 L 724 268.5 L 721.5 269 L 721.5 268 Z " /><path fill="rgb(146,194,89)" stroke="rgb(146,194,89)" stroke-width="1" opacity="0.9058823529411765" d="M 470.5 269 L 484 269.5 L 470.5 270 L 470.5 269 Z " /><path fill="rgb(146,194,89)" stroke="rgb(146,194,89)" stroke-width="1" opacity="0.9058823529411765" d="M 522.5 269 L 537 269.5 L 522.5 270 L 522.5 269 Z " /><path fill="rgb(146,194,89)" stroke="rgb(146,194,89)" stroke-width="1" opacity="0.9058823529411765" d="M 578.5 269 L 590 269.5 L 578.5 270 L 578.5 269 Z " /><path fill="rgb(146,194,89)" stroke="rgb(146,194,89)" stroke-width="1" opacity="0.9058823529411765" d="M 674.5 269 L 687 269.5 L 674.5 270 L 674.5 269 Z " /><path fill="rgb(146,194,89)" stroke="rgb(146,194,89)" stroke-width="1" opacity="0.9058823529411765" d="M 224 270 L 269.5 270 Q 270.6 270.1 270 275.5 L 271 275.5 Q 269 268.6 273 270 L 273 275.5 L 271 276 L 271 277.5 L 270 277.5 Q 270.7 274.9 268 276 Q 269.5 279.7 266.5 279 L 264.5 279 L 224.5 279 L 224 278.5 L 224 270 Z " /><path fill="rgb(146,194,89)" stroke="rgb(146,194,89)" stroke-width="1" opacity="0.9058823529411765" d="M 556.5 279 L 572 279.5 L 556.5 280 L 556.5 279 Z " /><path fill="rgb(146,194,89)" stroke="rgb(146,194,89)" stroke-width="1" opacity="0.9058823529411765" d="M 452.5 284 L 454.5 285 L 459.5 284 L 459.5 285 L 456 285 Q 458.2 290.6 452.5 289 L 451 285.5 L 452.5 284 Z M 452 285 Q 451 289 454 288 Q 455 284 452 285 Z " /><path fill="rgb(146,194,89)" stroke="rgb(146,194,89)" stroke-width="1" opacity="0.9058823529411765" d="M 465.5 284 L 468 284.5 L 465.5 285 L 465.5 284 Z " /><path fill="rgb(146,194,89)" stroke="rgb(146,194,89)" stroke-width="1" opacity="0.9058823529411765" d="M 506.5 284 L 512.5 285 L 514.5 285 L 516 285.5 L 516 297 L 514 296.5 L 514 285.5 L 513 285.5 L 513 296.5 L 511.5 297 L 510 295.5 L 510 285 Q 505.6 286 506.5 284 Z " /><path fill="rgb(146,194,89)" stroke="rgb(146,194,89)" stroke-width="1" opacity="0.9058823529411765" d="M 524.5 284 L 529 284.5 L 524.5 285 L 524.5 284 Z " /><path fill="rgb(146,194,89)" stroke="rgb(146,194,89)" stroke-width="1" opacity="0.9058823529411765" d="M 601.5 284 L 604 284.5 L 601.5 285 L 601.5 284 Z " /><path fill="rgb(146,194,89)" stroke="rgb(146,194,89)" stroke-width="1" opacity="0.9058823529411765" d="M 607.5 284 L 613.5 285 L 615.5 285 Q 618.9 284.1 617 289.5 L 614 290.5 L 614 297 L 618.5 297 L 619.5 299 L 617.5 298 L 614 299 Q 615.1 295.7 611 297 L 611 290 L 614 289.5 L 611 288 Q 612.8 283.5 607.5 285 L 607.5 284 Z M 615 285 L 614 288 L 615 288 L 615 285 Z " /><path fill="rgb(146,194,89)" stroke="rgb(146,194,89)" stroke-width="1" opacity="0.9058823529411765" d="M 633.5 284 L 635.5 285 L 640.5 284 L 640.5 285 L 637 285.5 L 637 297 L 634 297 Q 635 300 632 299 L 632 293 L 634 292.5 L 634 285.5 L 633 285.5 Q 635.1 291.4 630.5 290 L 627 288.5 L 629.5 288 L 631 288.5 Q 629.5 284.1 632.5 285 L 633.5 284 Z " /><path fill="rgb(146,194,89)" stroke="rgb(146,194,89)" stroke-width="1" opacity="0.9058823529411765" d="M 598.5 285 L 599.5 287 Q 596.7 287.7 598.5 285 Z " /><path fill="rgb(146,194,89)" stroke="rgb(146,194,89)" stroke-width="1" opacity="0.9058823529411765" d="M 396.5 288 L 400 288.5 L 396.5 289 L 396.5 288 Z " /><path fill="rgb(146,194,89)" stroke="rgb(146,194,89)" stroke-width="1" opacity="0.9058823529411765" d="M 401.5 288 L 404 288.5 L 401.5 289 L 401.5 288 Z " /><path fill="rgb(146,194,89)" stroke="rgb(146,194,89)" stroke-width="1" opacity="0.9058823529411765" d="M 406.5 288 L 409.5 289 L 413.5 288 L 413.5 289 L 411 289.5 L 413 290.5 L 411.5 291 L 406.5 289 L 406.5 288 Z " /><path fill="rgb(146,194,89)" stroke="rgb(146,194,89)" stroke-width="1" opacity="0.9058823529411765" d="M 425.5 288 L 426.5 290 Q 423.7 290.7 425.5 288 Z " /><path fill="rgb(146,194,89)" stroke="rgb(146,194,89)" stroke-width="1" opacity="0.9058823529411765" d="M 428.5 288 L 431 288.5 L 428.5 289 L 428.5 288 Z " /><path fill="rgb(146,194,89)" stroke="rgb(146,194,89)" stroke-width="1" opacity="0.9058823529411765" d="M 433.5 288 L 436 288.5 L 433.5 289 L 433.5 288 Z " /><path fill="rgb(146,194,89)" stroke="rgb(146,194,89)" stroke-width="1" opacity="0.9058823529411765" d="M 438.5 288 L 439 290 L 441.5 289 L 443.5 290 L 443.5 288 L 445.5 289 L 448.5 288 L 448.5 289 L 442.5 291 L 440.5 291 L 437 289.5 L 438.5 288 Z " /><path fill="rgb(146,194,89)" stroke="rgb(146,194,89)" stroke-width="1" opacity="0.9058823529411765" d="M 462 288 L 468 288 L 468 298.5 L 467 298.5 L 467 289.5 L 464 289 L 464 298.5 L 462 299 L 462 288 Z " /><path fill="rgb(146,194,89)" stroke="rgb(146,194,89)" stroke-width="1" opacity="0.9058823529411765" d="M 470.5 288 L 473.5 289 L 476.5 288 L 476.5 289 L 471.5 290 L 470.5 288 Z " /><path fill="rgb(146,194,89)" stroke="rgb(146,194,89)" stroke-width="1" opacity="0.9058823529411765" d="M 481.5 288 L 485.5 289 Q 486.8 286.8 488 289.5 L 487 292 L 479 291 L 478.5 293 L 478 291 Q 475 290 476 293 L 473.5 293 L 475.5 290 L 478.5 291 L 481.5 290 L 484.5 291 L 484.5 290 Q 480.7 289.7 481.5 288 Z " /><path fill="rgb(146,194,89)" stroke="rgb(146,194,89)" stroke-width="1" opacity="0.9058823529411765" d="M 492.5 288 L 495 288.5 L 492.5 289 L 492.5 288 Z " /><path fill="rgb(146,194,89)" stroke="rgb(146,194,89)" stroke-width="1" opacity="0.9058823529411765" d="M 498.5 288 L 502 288.5 L 498.5 289 L 498.5 288 Z " /><path fill="rgb(146,194,89)" stroke="rgb(146,194,89)" stroke-width="1" opacity="0.9058823529411765" d="M 529.5 288 L 532 288.5 L 529.5 289 L 529.5 288 Z " /><path fill="rgb(146,194,89)" stroke="rgb(146,194,89)" stroke-width="1" opacity="0.9058823529411765" d="M 534.5 288 L 537 288.5 L 534.5 289 L 534.5 288 Z " /><path fill="rgb(146,194,89)" stroke="rgb(146,194,89)" stroke-width="1" opacity="0.9058823529411765" d="M 543 288 L 545.5 289 L 548.5 288 L 548.5 289 L 543 290 L 543 288 Z " /><path fill="rgb(146,194,89)" stroke="rgb(146,194,89)" stroke-width="1" opacity="0.9058823529411765" d="M 552.5 288 L 557.5 289 L 559 288.5 L 558.5 291 Q 557.1 288.4 552.5 289 L 552.5 288 Z " /><path fill="rgb(146,194,89)" stroke="rgb(146,194,89)" stroke-width="1" opacity="0.9058823529411765" d="M 564.5 288 L 567 288.5 L 564.5 289 L 564.5 288 Z " /><path fill="rgb(146,194,89)" stroke="rgb(146,194,89)" stroke-width="1" opacity="0.9058823529411765" d="M 570.5 288 L 574 288.5 L 570.5 289 L 570.5 288 Z " /><path fill="rgb(146,194,89)" stroke="rgb(146,194,89)" stroke-width="1" opacity="0.9058823529411765" d="M 578 288 L 588 288.5 L 581 289 L 581 302.5 L 578 303 L 578 288 Z " /><path fill="rgb(146,194,89)" stroke="rgb(146,194,89)" stroke-width="1" opacity="0.9058823529411765" d="M 590.5 288 L 593 288.5 L 590.5 289 L 590.5 288 Z " /><path fill="rgb(146,194,89)" stroke="rgb(146,194,89)" stroke-width="1" opacity="0.9058823529411765" d="M 598 288 L 607 288.5 L 604 290 L 603.5 299 L 603 290.5 L 603.5 289 L 600 289 L 600 298.5 L 598 299 Q 599.5 294.5 595 296 L 595 292 Q 599.9 293.6 598 288 Z " /><path fill="rgb(146,194,89)" stroke="rgb(146,194,89)" stroke-width="1" opacity="0.9058823529411765" d="M 618 288 L 621 289.5 L 618 290 L 618 288 Z " /><path fill="rgb(146,194,89)" stroke="rgb(146,194,89)" stroke-width="1" opacity="0.9058823529411765" d="M 422.5 289 L 422 290.5 Q 422.8 292.8 420.5 292 L 419.5 290 L 422.5 289 Z " /><path fill="rgb(146,194,89)" stroke="rgb(146,194,89)" stroke-width="1" opacity="0.9058823529411765" d="M 401.5 290 L 407 290.5 L 402 291 Q 403 294 400 293 L 401.5 290 Z " /><path fill="rgb(146,194,89)" stroke="rgb(146,194,89)" stroke-width="1" opacity="0.9058823529411765" d="M 414.5 290 L 418 292.5 L 418 299 L 415 299 Q 415.7 292.1 414.5 290 Z " /><path fill="rgb(146,194,89)" stroke="rgb(146,194,89)" stroke-width="1" opacity="0.9058823529411765" d="M 429.5 290 L 432.5 291 L 434.5 290 L 437 291.5 Q 435.5 294.5 429.5 293 L 427 291.5 L 429.5 290 Z " /><path fill="rgb(146,194,89)" stroke="rgb(146,194,89)" stroke-width="1" opacity="0.9058823529411765" d="M 448.5 290 L 450 290.5 L 449 293 L 446 292.5 L 448.5 290 Z " /><path fill="rgb(146,194,89)" stroke="rgb(146,194,89)" stroke-width="1" opacity="0.9058823529411765" d="M 452.5 290 L 455 291.5 L 453.5 291 L 450.5 293 L 452.5 290 Z " /><path fill="rgb(146,194,89)" stroke="rgb(146,194,89)" stroke-width="1" opacity="0.9058823529411765" d="M 489 290 Q 492 289 491 292 Q 488 293 489 290 Z " /><path fill="rgb(146,194,89)" stroke="rgb(146,194,89)" stroke-width="1" opacity="0.9058823529411765" d="M 497.5 290 L 501 291.5 L 495.5 293 Q 494 290.5 492.5 294 L 490 293.5 L 492 293 Q 490.8 290 494.5 291 L 497.5 292 L 497.5 290 Z " /><path fill="rgb(146,194,89)" stroke="rgb(146,194,89)" stroke-width="1" opacity="0.9058823529411765" d="M 502.5 290 Q 506.3 288.8 505 292.5 L 502.5 290 Z " /><path fill="rgb(146,194,89)" stroke="rgb(146,194,89)" stroke-width="1" opacity="0.9058823529411765" d="M 529.5 290 L 532 290.5 L 530 291 Q 531 294 528 293 L 529.5 290 Z " /><path fill="rgb(146,194,89)" stroke="rgb(146,194,89)" stroke-width="1" opacity="0.9058823529411765" d="M 548.5 290 L 550.5 291 L 553.5 290 L 554.5 292 L 551 291 L 550.5 293 L 550 291 Q 547 290 548 293 L 545.5 293 L 545.5 292 L 548.5 290 Z " /><path fill="rgb(146,194,89)" stroke="rgb(146,194,89)" stroke-width="1" opacity="0.9058823529411765" d="M 561 290 L 563 290 Q 561.5 293.7 564.5 293 L 566 296 L 561.5 297 L 561 295 Q 556.5 296.5 558 292 Q 562.1 293.3 561 290 Z " /><path fill="rgb(146,194,89)" stroke="rgb(146,194,89)" stroke-width="1" opacity="0.9058823529411765" d="M 574 290 Q 578.5 288.5 577 293 L 574.5 294 L 574 290 Z " /><path fill="rgb(146,194,89)" stroke="rgb(146,194,89)" stroke-width="1" opacity="0.9058823529411765" d="M 585.5 290 L 591 290.5 L 585.5 291 L 585.5 290 Z " /><path fill="rgb(146,194,89)" stroke="rgb(146,194,89)" stroke-width="1" opacity="0.9058823529411765" d="M 622.5 290 L 625 290.5 L 623 291.5 L 628 292.5 L 623.5 293 Q 622 290.5 620.5 294 L 617.5 295 L 615 294 Q 613.9 291.3 616.5 292 L 619.5 291 Q 621 293.5 622.5 290 Z M 617 292 L 618 294 L 620 293 L 617 292 Z " /><path fill="rgb(146,194,89)" stroke="rgb(146,194,89)" stroke-width="1" opacity="0.9058823529411765" d="M 534 291 L 536 291.5 L 536 299 L 534 298.5 L 534 291 Z " /><path fill="rgb(146,194,89)" stroke="rgb(146,194,89)" stroke-width="1" opacity="0.9058823529411765" d="M 569.5 291 L 572 292.5 L 568.5 293 L 569.5 291 Z " /><path fill="rgb(146,194,89)" stroke="rgb(146,194,89)" stroke-width="1" opacity="0.9058823529411765" d="M 406.5 292 L 407 298.5 L 406 298.5 L 406.5 292 Z " /><path fill="rgb(146,194,89)" stroke="rgb(146,194,89)" stroke-width="1" opacity="0.9058823529411765" d="M 410 292 L 412 292.5 L 412 299 L 410 298.5 L 410 292 Z " /><path fill="rgb(146,194,89)" stroke="rgb(146,194,89)" stroke-width="1" opacity="0.9058823529411765" d="M 583 292 Q 586.3 290.9 585 295 Q 581.7 296.1 583 292 Z " /><path fill="rgb(146,194,89)" stroke="rgb(146,194,89)" stroke-width="1" opacity="0.9058823529411765" d="M 531.5 293 L 532 298.5 L 531 298.5 L 531.5 293 Z " /><path fill="rgb(146,194,89)" stroke="rgb(146,194,89)" stroke-width="1" opacity="0.9058823529411765" d="M 586 293 L 588 293.5 L 586 294.5 L 586 293 Z " /><path fill="rgb(146,194,89)" stroke="rgb(146,194,89)" stroke-width="1" opacity="0.9058823529411765" d="M 591 293 L 593 293.5 L 591 294.5 L 591 293 Z " /><path fill="rgb(146,194,89)" stroke="rgb(146,194,89)" stroke-width="1" opacity="0.9058823529411765" d="M 427 294 Q 430.7 292.5 430 295.5 L 431 295.5 Q 430.3 293.3 432.5 294 L 433.5 296 L 429.5 297 L 427 296 L 427 294 Z " /><path fill="rgb(146,194,89)" stroke="rgb(146,194,89)" stroke-width="1" opacity="0.9058823529411765" d="M 495.5 294 L 498.5 295 L 500.5 294 L 498.5 297 L 497 296.5 L 497.5 295 Q 494.5 295.5 495.5 294 Z " /><path fill="rgb(146,194,89)" stroke="rgb(146,194,89)" stroke-width="1" opacity="0.9058823529411765" d="M 567 294 L 570 294.5 L 567 296 L 567 294 Z " /><path fill="rgb(146,194,89)" stroke="rgb(146,194,89)" stroke-width="1" opacity="0.9058823529411765" d="M 623.5 294 Q 626.8 292.9 626 295.5 L 626.5 297 L 623 295 Q 624 298 621 297 Q 619.9 294.3 622.5 295 L 623.5 294 Z " /><path fill="rgb(146,194,89)" stroke="rgb(146,194,89)" stroke-width="1" opacity="0.9058823529411765" d="M 436.5 295 Q 442.4 293.3 441 297 L 436.5 296 L 436.5 295 Z " /><path fill="rgb(146,194,89)" stroke="rgb(146,194,89)" stroke-width="1" opacity="0.9058823529411765" d="M 446.5 295 L 449 295.5 L 446.5 296 L 446.5 295 Z " /><path fill="rgb(146,194,89)" stroke="rgb(146,194,89)" stroke-width="1" opacity="0.9058823529411765" d="M 450.5 295 L 453.5 296 L 455.5 295 L 454.5 297 Q 449.7 297.1 450.5 295 Z " /><path fill="rgb(146,194,89)" stroke="rgb(146,194,89)" stroke-width="1" opacity="0.9058823529411765" d="M 481.5 295 L 489.5 295 L 490 297 L 481.5 296 L 481.5 295 Z " /><path fill="rgb(146,194,89)" stroke="rgb(146,194,89)" stroke-width="1" opacity="0.9058823529411765" d="M 546.5 295 L 549.5 296 L 551 295.5 L 547.5 297 L 546.5 295 Z " /><path fill="rgb(146,194,89)" stroke="rgb(146,194,89)" stroke-width="1" opacity="0.9058823529411765" d="M 421.5 296 L 422 298.5 L 421 298.5 L 421.5 296 Z " /><path fill="rgb(146,194,89)" stroke="rgb(146,194,89)" stroke-width="1" opacity="0.9058823529411765" d="M 423.5 296 L 426 296 Q 424.8 299 428.5 298 L 428.5 299 L 425.5 298 L 424 298.5 L 424.5 297 L 423.5 296 Z " /><path fill="rgb(146,194,89)" stroke="rgb(146,194,89)" stroke-width="1" opacity="0.9058823529411765" d="M 442.5 296 L 445 296.5 L 442.5 297 L 442.5 296 Z " /><path fill="rgb(146,194,89)" stroke="rgb(146,194,89)" stroke-width="1" opacity="0.9058823529411765" d="M 470.5 296 Q 472.8 295.3 472 297.5 L 470 298.5 L 470.5 296 Z " /><path fill="rgb(146,194,89)" stroke="rgb(146,194,89)" stroke-width="1" opacity="0.9058823529411765" d="M 542.5 296 Q 544.8 295.3 544 297.5 L 542 298.5 L 542.5 296 Z " /><path fill="rgb(146,194,89)" stroke="rgb(146,194,89)" stroke-width="1" opacity="0.9058823529411765" d="M 593.5 297 L 596 297.5 L 592.5 299 L 593.5 297 Z " /><path fill="rgb(146,194,89)" stroke="rgb(146,194,89)" stroke-width="1" opacity="0.9058823529411765" d="M 642 297 Q 645 296 644 299 Q 641 300 642 297 Z " /><path fill="rgb(146,194,89)" stroke="rgb(146,194,89)" stroke-width="1" opacity="0.9058823529411765" d="M 435.5 298 L 438 298.5 L 435.5 299 L 435.5 298 Z " /><path fill="rgb(146,194,89)" stroke="rgb(146,194,89)" stroke-width="1" opacity="0.9058823529411765" d="M 489.5 298 L 492 298.5 L 489.5 299 L 489.5 298 Z " /><path fill="rgb(146,194,89)" stroke="rgb(146,194,89)" stroke-width="1" opacity="0.9058823529411765" d="M 498.5 298 L 501 298.5 L 498.5 299 L 498.5 298 Z " /><path fill="rgb(146,194,89)" stroke="rgb(146,194,89)" stroke-width="1" opacity="0.9058823529411765" d="M 573.5 298 L 577 299 Q 578.7 304.2 575 303 L 575 299 L 573.5 299 L 573.5 298 Z " /><path fill="rgb(146,194,89)" stroke="rgb(146,194,89)" stroke-width="1" opacity="0.9058823529411765" d="M 583 298 L 586 298.5 L 585 303 L 583 303 L 583 298 Z " /><path fill="rgb(146,194,89)" stroke="rgb(146,194,89)" stroke-width="1" opacity="0.9058823529411765" d="M 636.5 298 L 639 298.5 L 636.5 299 L 636.5 298 Z " /><path fill="rgb(146,194,89)" stroke="rgb(146,194,89)" stroke-width="1" opacity="0.9058823529411765" d="M 222.5 313 L 225 313.5 L 222.5 314 L 222.5 313 Z " /></svg>